<?xml version="1.0" standalone="no"?>
<!DOCTYPE svg PUBLIC "-//W3C//DTD SVG 20010904//EN"
 "http://www.w3.org/TR/2001/REC-SVG-20010904/DTD/svg10.dtd">
<svg version="1.0" xmlns="http://www.w3.org/2000/svg"
 height="28" width="137" viewBox="0 0 713.000000 173.000000"
 preserveAspectRatio="xMidYMid meet">

<g transform="translate(0.000000,173.000000) scale(0.100000,-0.100000)"
fill="#000000" stroke="none">
<path d="M843 1723 c-48 -9 -20 -20 65 -26 107 -7 196 -29 280 -68 60 -29 181
-120 231 -173 29 -31 41 -33 41 -7 0 11 -34 51 -79 93 -89 84 -187 139 -291
162 -70 15 -211 26 -247 19z"/>
<path d="M630 1650 c-41 -11 -115 -40 -165 -65 -312 -157 -494 -488 -455 -830
5 -52 15 -106 20 -121 l11 -28 59 59 59 58 -1 101 c0 58 7 130 16 168 19 84
72 202 86 193 6 -4 7 1 3 11 -5 13 -3 15 7 9 8 -5 11 -4 6 3 -9 15 69 108 140
165 122 99 264 147 435 147 l105 0 59 60 c32 33 57 61 54 64 -15 14 -128 26
-237 25 -91 0 -148 -6 -202 -19z"/>
<path d="M2255 1457 c-23 -20 -27 -32 -32 -103 -7 -103 3 -187 27 -216 17 -21
26 -23 115 -23 94 0 98 1 121 28 20 23 24 39 24 91 0 35 -5 67 -12 74 -7 7
-36 12 -65 12 -50 0 -53 -2 -53 -24 0 -21 5 -25 38 -28 37 -3 37 -3 36 -46 0
-26 -7 -48 -15 -53 -21 -13 -133 -11 -147 3 -14 14 -17 225 -4 245 5 8 42 13
102 15 90 3 95 4 98 26 3 22 2 22 -102 22 -95 0 -107 -2 -131 -23z"/>
<path d="M3410 1461 c0 -13 8 -21 23 -23 21 -3 22 -7 25 -140 3 -135 2 -137
-20 -140 -15 -2 -23 -10 -23 -23 0 -18 7 -20 70 -20 63 0 70 2 70 20 0 13 -8
21 -23 23 -22 3 -23 5 -20 140 3 135 3 137 26 140 15 2 22 9 20 20 -3 14 -17
18 -76 20 -66 3 -72 1 -72 -17z"/>
<path d="M4523 1458 c-32 -36 -34 -42 -58 -191 -24 -145 -22 -161 15 -154 10
1 18 22 24 65 l9 62 88 0 c98 0 92 4 105 -82 6 -48 16 -56 43 -39 12 8 12 26
-3 123 -22 144 -31 179 -57 212 -18 23 -27 26 -83 26 -52 0 -66 -4 -83 -22z
m136 -51 c5 -13 12 -45 16 -70 l7 -47 -79 0 -80 0 9 52 c15 79 22 88 74 88 37
0 46 -4 53 -23z"/>
<path d="M5577 1473 c-4 -3 -7 -87 -7 -185 l0 -178 25 0 25 0 0 161 c0 114 3
160 11 157 6 -2 37 -68 69 -148 31 -79 66 -149 76 -157 10 -8 35 -13 54 -11
l35 3 3 183 2 182 -25 0 -25 0 0 -162 c0 -195 -3 -195 -80 2 -29 74 -58 141
-63 148 -10 12 -89 17 -100 5z"/>
<path d="M6702 1458 c3 -20 10 -23 56 -26 l52 -3 0 -160 0 -160 28 3 27 3 3
157 3 157 52 3 c45 3 52 6 55 26 3 22 3 22 -138 22 -141 0 -141 0 -138 -22z"/>
<path d="M1315 1400 l-49 -49 55 -26 c71 -33 148 -34 203 -2 54 30 57 47 9 47
-22 0 -54 10 -78 25 -100 60 -86 60 -140 5z m15 -5 c-24 -25 -46 -45 -49 -45
-3 0 15 20 39 45 24 25 46 45 49 45 3 0 -15 -20 -39 -45z"/>
<path d="M1129 1214 c-24 -24 -39 -44 -35 -44 5 0 4 -6 -2 -12 -5 -7 -30 -81
-55 -164 l-45 -150 44 -189 c25 -106 51 -197 61 -207 9 -10 30 -22 47 -27 27
-7 35 -4 64 22 l32 31 0 121 0 121 -56 18 c-61 19 -83 50 -64 87 9 15 22 19
65 19 30 0 55 5 55 10 0 6 43 10 110 10 76 0 110 4 110 12 0 8 -30 9 -110 4
l-110 -6 0 179 c0 187 -1 192 -47 203 -16 4 -32 -5 -64 -38z m51 33 c0 -2 -19
-21 -42 -42 l-43 -40 40 43 c36 39 45 47 45 39z m8 -200 c2 -9 -4 -20 -12 -23
-21 -8 -46 13 -39 32 8 20 47 13 51 -9z"/>
<path d="M538 1180 c-94 -16 -137 -64 -157 -174 -6 -33 -10 -61 -8 -62 2 -2
59 53 127 121 130 130 130 130 38 115z"/>
<path d="M222 1103 c-44 -105 -58 -263 -33 -388 20 -99 90 -232 165 -311 55
-58 65 -65 66 -46 0 13 -21 48 -49 82 -65 78 -114 167 -143 260 -32 103 -32
283 0 380 25 77 23 89 -6 23z"/>
<path d="M830 913 l-135 -138 138 135 c75 74 137 136 137 137 0 8 -15 -7 -140
-134z"/>
<path d="M839 892 l-136 -137 16 -168 c16 -168 16 -169 44 -184 16 -8 35 -13
44 -11 12 2 40 86 105 307 113 386 114 383 -73 193z"/>
<path d="M1986 889 l-26 -20 0 -294 c0 -161 3 -300 6 -309 8 -20 113 -23 132
-4 9 9 12 82 12 265 0 196 3 253 13 253 6 0 47 -54 90 -120 l77 -119 0 -120
c0 -137 6 -151 71 -151 76 0 79 5 79 143 l0 122 69 108 c81 127 89 137 107
137 11 0 14 -49 16 -262 l3 -263 65 0 65 0 3 295 c1 162 0 304 -2 316 -8 30
-48 44 -129 44 -112 -1 -141 -18 -211 -130 -49 -76 -61 -90 -70 -77 -6 8 -33
50 -59 92 -60 95 -95 114 -208 115 -62 0 -81 -4 -103 -21z"/>
<path d="M3025 894 c-50 -25 -84 -65 -104 -119 -19 -51 -91 -431 -91 -480 0
-30 31 -45 91 -45 47 0 50 6 69 128 l12 82 143 0 143 0 17 -94 c9 -52 23 -100
31 -107 19 -16 105 -5 120 15 9 13 5 51 -17 179 -46 263 -57 306 -87 360 -43
75 -89 97 -206 97 -63 0 -100 -5 -121 -16z m205 -156 c10 -24 21 -67 25 -95
l7 -53 -116 0 c-64 0 -116 4 -116 8 0 28 24 131 36 154 14 26 19 28 80 28 l65
0 19 -42z"/>
<path d="M3555 898 c-11 -6 -23 -16 -27 -22 -9 -13 -11 -587 -2 -610 5 -12 21
-16 65 -16 47 0 60 4 69 19 6 12 10 115 10 266 0 193 3 246 13 243 6 -2 47
-55 89 -118 l77 -115 0 -122 c1 -140 7 -153 72 -153 76 0 79 5 79 144 l0 123
66 104 c72 112 92 139 106 139 4 0 8 -112 8 -248 0 -186 3 -253 13 -266 10
-14 25 -17 72 -14 l60 3 3 295 c1 162 0 304 -2 316 -8 30 -48 44 -129 44 -112
-1 -142 -19 -211 -129 -32 -50 -59 -91 -61 -91 -1 0 -28 41 -60 91 -71 111
-100 129 -215 128 -41 0 -84 -5 -95 -11z"/>
<path d="M4432 894 l-22 -19 2 -310 3 -310 65 0 65 0 3 263 c2 221 5 262 17
262 8 0 50 -55 95 -122 l80 -123 0 -122 c0 -136 4 -143 70 -143 66 0 70 8 70
139 l0 118 81 126 c44 70 87 127 95 127 12 0 14 -41 14 -249 0 -137 3 -256 6
-265 8 -20 113 -23 132 -4 9 9 12 91 12 305 l0 294 -25 24 c-21 22 -33 25 -97
25 -134 0 -158 -15 -243 -154 l-43 -69 -59 88 c-79 120 -91 128 -206 133 -79
4 -95 1 -115 -14z"/>
<path d="M5406 896 c-51 -19 -94 -62 -106 -105 -5 -20 -10 -119 -10 -221 0
-173 2 -189 23 -230 16 -33 34 -51 67 -67 40 -21 58 -23 200 -23 176 0 219 12
261 71 23 33 24 41 27 242 3 193 2 211 -17 251 -14 28 -35 50 -64 67 -39 22
-54 24 -192 27 -110 1 -160 -2 -189 -12z m303 -130 c8 -9 11 -70 9 -197 l-3
-184 -124 -3 c-82 -2 -128 1 -137 9 -19 15 -20 359 -2 377 18 18 242 16 257
-2z"/>
<path d="M5943 903 c-20 -7 -17 -109 3 -117 9 -3 56 -6 105 -6 l89 0 2 -262 3
-263 65 0 65 0 3 263 2 262 89 0 c49 0 96 3 105 6 20 8 30 62 17 97 l-11 27
-262 -1 c-145 0 -269 -3 -275 -6z"/>
<path d="M6562 898 c-9 -9 -12 -92 -12 -314 0 -166 3 -309 6 -318 5 -12 21
-16 65 -16 47 0 60 4 69 19 5 11 10 74 10 140 l0 121 140 0 140 0 0 -128 c0
-86 4 -132 12 -140 7 -7 35 -12 63 -12 28 0 56 5 63 12 17 17 17 619 0 636 -7
7 -36 12 -65 12 -68 0 -73 -10 -73 -144 l0 -106 -140 0 -140 0 0 106 c0 134
-5 144 -73 144 -29 0 -58 -5 -65 -12z"/>
<path d="M1250 782 l0 -59 105 -15 104 -14 73 73 72 73 -177 0 -177 0 0 -58z"/>
<path d="M515 598 l-90 -93 93 90 c50 49 92 91 92 92 0 8 -12 -4 -95 -89z"/>
<path d="M510 565 c-83 -84 -85 -98 -16 -121 29 -10 38 -11 41 -1 25 77 55
190 53 193 -2 2 -38 -30 -78 -71z"/>
<path d="M260 343 l-55 -58 58 55 c53 50 62 60 54 60 -1 0 -27 -26 -57 -57z"/>
<path d="M276 331 c-29 -29 -47 -55 -43 -64 10 -28 158 -137 239 -177 85 -41
217 -80 272 -80 26 0 45 14 105 74 l74 74 -89 1 c-168 1 -325 61 -442 167 -33
30 -62 54 -64 54 -2 0 -26 -22 -52 -49z"/>
<path d="M1177 274 c-72 -37 -189 -64 -279 -64 -63 0 -78 -3 -78 -15 0 -38
206 -4 328 55 45 21 82 42 82 45 0 7 2 7 -53 -21z"/>
<path d="M801 194 c0 -11 3 -14 6 -6 3 7 2 16 -1 19 -3 4 -6 -2 -5 -13z"/>
</g>
</svg>
